<?xml version="1.0" encoding="UTF-8" standalone="no"?>
<!-- Created with Inkscape (http://www.inkscape.org/) -->

<svg
   width="20.789339mm"
   height="25.347622mm"
   viewBox="0 0 20.789339 25.347622"
   version="1.1"
   id="svg1"
   xml:space="preserve"
   xmlns="http://www.w3.org/2000/svg"
   xmlns:svg="http://www.w3.org/2000/svg"><defs
     id="defs1" /><g
     id="layer1"
     transform="translate(-104.61213,-125.11396)"><path
       id="rect367"
       style="fill:#d6937a;fill-opacity:1;stroke-width:0.264583"
       d="m 115.04884,125.11398 c 0.98344,-0.007 2.56463,1.69145 5.44354,5.47918 2.55153,3.35701 5.70592,6.80155 4.72612,7.66627 -1.20703,1.06526 -5.27301,0.65231 -5.27301,0.65231 0,0 -0.11758,2.00568 -0.21976,5.1296 -0.1569,4.79734 0.31585,6.3643 -4.99552,6.41988 -4.11677,0.0431 -4.47991,-3.87788 -4.52517,-7.14482 -0.0312,-2.2548 0.0202,-4.33186 0.0202,-4.33186 0,0 -5.09144,0.3205 -5.51934,-0.55177 -0.66689,-1.35946 2.36347,-3.85232 4.6586,-7.0352 2.44812,-3.39503 4.96187,-6.27852 5.68439,-6.28359 z" /><ellipse
       style="fill:#b85947;fill-opacity:1;stroke-width:0.264583"
       id="path367"
       cx="109.60288"
       cy="136.78598"
       rx="1.1989787"
       ry="1.2423152" /><ellipse
       style="fill:#b85947;fill-opacity:1;stroke-width:0.187873"
       id="path367-4"
       cx="116.07984"
       cy="132.01778"
       rx="0.88117713"
       ry="0.85228598" /><ellipse
       style="fill:#b85947;fill-opacity:1;stroke-width:0.251559"
       id="path367-4-7"
       cx="113.68955"
       cy="143.9543"
       rx="1.1798812"
       ry="1.1411965" /><ellipse
       style="fill:#b85947;fill-opacity:1;stroke-width:0.20061"
       id="path367-4-7-2"
       cx="118.27171"
       cy="146.07561"
       rx="0.94091791"
       ry="0.91006809" /><path
       id="path368"
       style="fill:#b85947;stroke-width:0.264583"
       d="m 119.72196,139.36448 c 0.007,0.68247 -1.06773,1.67694 -2.38409,1.94029 -1.31636,0.26334 -2.92908,0.25291 -4.21774,-0.0273 -1.28868,-0.28021 -2.21866,-0.93099 -2.15663,-1.57699 0,0 2.92703,0.22277 4.37425,0.2129 3.37697,-0.023 4.38421,-0.5489 4.38421,-0.5489 z" /></g></svg>
